<?xml version="1.0" encoding="utf-8"?>
<!-- Generator: Adobe Illustrator 28.0.0, SVG Export Plug-In . SVG Version: 6.00 Build 0)  -->
<svg version="1.1" id="Layer_1" xmlns="http://www.w3.org/2000/svg" xmlns:xlink="http://www.w3.org/1999/xlink" x="0px" y="0px"
	 viewBox="0 0 96 91.6" style="enable-background:new 0 0 96 91.6;" xml:space="preserve">
<path d="M7.1,70.6L0,65.5l21.8-34.9l13.1,15.3l17.5-28.4l11.9,17.8c-1.7,0.1-3.3,0.3-4.7,0.6c-1.5,0.3-3,0.8-4.4,1.4l-2.4-3.6
	L36.1,60.5L22.9,45.2L7.1,70.6z M89.8,91.6L76.1,78c-1.5,1-3.1,1.8-4.9,2.3s-3.6,0.8-5.5,0.8c-5.5,0-10.1-1.9-13.9-5.7
	c-3.8-3.8-5.7-8.5-5.7-13.9s1.9-10.1,5.7-13.9s8.5-5.7,13.9-5.7c5.5,0,10.1,1.9,13.9,5.7s5.7,8.5,5.7,13.9c0,1.9-0.3,3.7-0.8,5.5
	c-0.5,1.8-1.3,3.4-2.3,5L96,85.4L89.8,91.6z M65.8,72.3c3.1,0,5.6-1.1,7.7-3.2c2.1-2.1,3.2-4.7,3.2-7.7c0-3.1-1.1-5.6-3.2-7.7
	c-2.1-2.1-4.7-3.2-7.7-3.2c-3.1,0-5.6,1.1-7.7,3.2c-2.1,2.1-3.2,4.7-3.2,7.7c0,3.1,1.1,5.6,3.2,7.7C60.1,71.3,62.7,72.3,65.8,72.3z
	 M75.5,37.4c-1.4-0.6-2.8-1.1-4.3-1.4c-1.5-0.4-3-0.6-4.6-0.7L88.9,0L96,5.1L75.5,37.4z"/>
</svg>
